# Blender v2.74 (sub 0) OBJ File: ''
# www.blender.org
mtllib new-arrow.mtl
o Polygon_2.001_Polygon_2
v 9.903970 -0.000000 5.902570
v 9.890300 -0.000000 6.141040
v 9.853860 -0.000000 6.141040
v 9.831090 -0.000000 0.046811
v 9.899410 -0.000000 0.364771
v 6.692850 0.000000 -1.931610
v 9.744550 -0.000000 6.061550
v 8.050180 -0.000000 5.037010
v 9.922190 -0.000000 4.811790
v 9.858420 -0.000000 0.095388
v 9.881190 -0.000000 0.192542
v 9.917630 -0.000000 1.031600
v 1.172470 -0.000000 0.815213
v 0.042888 0.000000 -6.091580
v 5.604260 0.000000 -2.602850
v -0.039098 -0.000000 0.095388
v -10.055000 -0.000000 0.086556
v -4.325140 -0.000000 2.647900
v -10.077800 -0.000000 4.025720
v -0.166632 0.000000 -6.135740
v -0.102865 0.000000 -6.166650
v -9.212410 -0.000000 5.659680
v -1.232450 -0.000000 0.771052
v -10.077800 -0.000000 5.262230
v -10.041400 -0.000000 6.043890
v -9.995830 -0.000000 6.123380
v -10.023200 -0.000000 6.110130
v -10.059600 -0.000000 5.893740
v -0.139303 -0.000000 0.126301
v -0.098310 -0.000000 0.095388
v 0.092990 -0.000000 0.179294
v 9.853860 0.300000 6.141040
v 9.890300 0.300000 6.141040
v 9.903970 0.300000 5.902570
v 6.692850 0.300000 -1.931610
v 9.899410 0.300000 0.364771
v 9.831090 0.300000 0.046811
v 9.922190 0.300000 4.811790
v 8.050180 0.300000 5.037010
v 9.744550 0.300000 6.061550
v 9.881190 0.300000 0.192542
v 9.858420 0.300000 0.095388
v 9.917630 0.300000 1.031600
v 1.172470 0.300000 0.815213
v -0.039098 0.300000 0.095388
v 5.604260 0.300000 -2.602850
v 0.042888 0.300000 -6.091580
v -10.077800 0.300000 4.025720
v -4.325140 0.300000 2.647900
v -10.055000 0.300000 0.086556
v -0.102865 0.300000 -6.166650
v -0.166632 0.300000 -6.135740
v -9.212410 0.300000 5.659680
v -1.232450 0.300000 0.771052
v -10.077800 0.300000 5.262230
v -10.023200 0.300000 6.110130
v -9.995830 0.300000 6.123380
v -10.041400 0.300000 6.043890
v -10.059600 0.300000 5.893740
v -0.139303 0.300000 0.126301
v -0.098310 0.300000 0.095388
v 0.092990 0.300000 0.179294
vn -0.000000 -1.000000 -0.000000
vn 0.000000 1.000000 0.000000
vn 0.998400 0.000000 0.057200
vn 0.999900 0.000000 0.016700
vn 1.000000 0.000000 -0.001200
vn 0.999600 0.000000 -0.027300
vn 0.994500 0.000000 -0.105200
vn 0.973600 0.000000 -0.228200
vn 0.871500 0.000000 -0.490300
vn 0.533300 0.000000 -0.845900
vn 0.524900 0.000000 -0.851200
vn 0.531400 0.000000 -0.847100
vn 0.457900 0.000000 -0.889000
vn -0.436200 0.000000 -0.899900
vn -0.532600 0.000000 -0.846400
vn -1.000000 0.000000 -0.005800
vn -1.000000 0.000000 0.000000
vn -0.999600 0.000000 0.028800
vn -0.992700 0.000000 0.120300
vn -0.964300 0.000000 0.264900
vn -0.436200 -0.000000 0.899900
vn 0.509400 0.000000 0.860600
vn 0.524600 0.000000 0.851300
vn 0.518800 0.000000 0.854900
vn 0.508000 0.000000 0.861300
vn 0.602100 0.000000 0.798400
vn 0.000000 0.000000 1.000000
vn -0.536200 0.000000 0.844100
vn -0.507600 0.000000 0.861600
vn -0.523100 0.000000 0.852200
vn -0.517400 0.000000 0.855700
vn -0.588100 0.000000 0.808800
usemtl 44b8e7
s 1
f 1//1 2//1 3//1
f 4//1 5//1 6//1
f 7//1 8//1 9//1
f 10//1 11//1 4//1
f 4//1 11//1 5//1
f 6//1 5//1 12//1
f 13//1 6//1 8//1
f 14//1 15//1 16//1
f 17//1 18//1 19//1
f 14//1 20//1 21//1
f 19//1 18//1 22//1
f 17//1 23//1 18//1
f 22//1 24//1 19//1
f 25//1 26//1 27//1
f 25//1 28//1 26//1
f 26//1 28//1 22//1
f 13//1 15//1 6//1
f 22//1 28//1 24//1
f 17//1 20//1 23//1
f 23//1 20//1 29//1
f 29//1 20//1 30//1
f 16//1 30//1 14//1
f 30//1 20//1 14//1
f 31//1 15//1 13//1
f 16//1 15//1 31//1
f 8//1 12//1 9//1
f 6//1 12//1 8//1
f 3//1 7//1 1//1
f 7//1 9//1 1//1
f 32//2 33//2 34//2
f 35//2 36//2 37//2
f 38//2 39//2 40//2
f 37//2 41//2 42//2
f 36//2 41//2 37//2
f 43//2 36//2 35//2
f 39//2 35//2 44//2
f 45//2 46//2 47//2
f 48//2 49//2 50//2
f 51//2 52//2 47//2
f 53//2 49//2 48//2
f 49//2 54//2 50//2
f 48//2 55//2 53//2
f 56//2 57//2 58//2
f 57//2 59//2 58//2
f 53//2 59//2 57//2
f 35//2 46//2 44//2
f 55//2 59//2 53//2
f 54//2 52//2 50//2
f 60//2 52//2 54//2
f 61//2 52//2 60//2
f 47//2 61//2 45//2
f 47//2 52//2 61//2
f 44//2 46//2 62//2
f 62//2 46//2 45//2
f 38//2 43//2 39//2
f 39//2 43//2 35//2
f 34//2 40//2 32//2
f 34//2 38//2 40//2
f 1//3 33//3 2//3
f 1//3 34//3 33//3
f 9//4 34//4 1//4
f 9//4 38//4 34//4
f 12//5 38//5 9//5
f 12//5 43//5 38//5
f 5//6 43//6 12//6
f 5//6 36//6 43//6
f 11//7 36//7 5//7
f 11//7 41//7 36//7
f 10//8 41//8 11//8
f 10//8 42//8 41//8
f 4//9 42//9 10//9
f 4//9 37//9 42//9
f 6//10 37//10 4//10
f 6//10 35//10 37//10
f 15//11 35//11 6//11
f 15//11 46//11 35//11
f 14//12 46//12 15//12
f 14//12 47//12 46//12
f 21//13 47//13 14//13
f 21//13 51//13 47//13
f 20//14 51//14 21//14
f 20//14 52//14 51//14
f 17//15 52//15 20//15
f 17//15 50//15 52//15
f 19//16 50//16 17//16
f 19//16 48//16 50//16
f 24//17 48//17 19//17
f 24//17 55//17 48//17
f 28//18 55//18 24//18
f 28//18 59//18 55//18
f 25//19 59//19 28//19
f 25//19 58//19 59//19
f 27//20 58//20 25//20
f 27//20 56//20 58//20
f 26//21 56//21 27//21
f 26//21 57//21 56//21
f 22//22 57//22 26//22
f 22//22 53//22 57//22
f 18//23 53//23 22//23
f 18//23 49//23 53//23
f 23//24 49//24 18//24
f 23//24 54//24 49//24
f 29//25 54//25 23//25
f 29//25 60//25 54//25
f 30//26 60//26 29//26
f 30//26 61//26 60//26
f 16//27 61//27 30//27
f 16//27 45//27 61//27
f 31//28 45//28 16//28
f 31//28 62//28 45//28
f 13//29 62//29 31//29
f 13//29 44//29 62//29
f 8//30 44//30 13//30
f 8//30 39//30 44//30
f 7//31 39//31 8//31
f 7//31 40//31 39//31
f 3//32 40//32 7//32
f 3//32 32//32 40//32
f 2//27 32//27 3//27
f 2//27 33//27 32//27
